
<svg width="160" height="60" viewBox="0 0 160 60" fill="none" xmlns="http://www.w3.org/2000/svg">
  <path d="M25.5 12C20.2533 12 16 16.2533 16 21.5C16 26.7467 20.2533 31 25.5 31C30.7467 31 35 26.7467 35 21.5C35 16.2533 30.7467 12 25.5 12Z" fill="#FFDDBA"/>
  <path d="M44.0625 18.5C43.1602 18.5 42.2969 18.8594 41.6562 19.5C41.0156 20.1406 40.6562 21.0039 40.6562 21.9062C40.6562 22.8086 41.0156 23.6719 41.6562 24.3125C42.2969 24.9531 43.1602 25.3125 44.0625 25.3125H61.625C63.8164 25.3125 65.9141 24.4336 67.4766 22.8711C69.0391 21.3086 69.9375 19.2109 69.9375 17.0195V17.0195C69.9375 14.8281 69.0391 12.7305 67.4766 11.168C65.9141 9.60547 63.8164 8.70703 61.625 8.70703H51.7188C50.6211 8.70703 49.5625 9.14844 48.7852 9.92578C48.0078 10.7031 47.5664 11.7617 47.5664 12.8594C47.5664 13.957 48.0078 15.0156 48.7852 15.793C49.5625 16.5703 50.6211 17.0117 51.7188 17.0117H59.8594C61.1406 17.0117 62.1797 18.0508 62.1797 19.332C62.1797 20.6133 61.1406 21.6523 59.8594 21.6523H44.0625V18.5Z" fill="#9370DB"/>
  <path d="M92.6367 8.70703H74.5625C73.6602 8.70703 72.7969 9.06641 72.1562 9.70703C71.5156 10.3477 71.1562 11.2109 71.1562 12.1133C71.1562 13.0156 71.5156 13.8789 72.1562 14.5195C72.7969 15.1602 73.6602 15.5195 74.5625 15.5195H82.4531V39.8789C82.4531 40.7812 82.8125 41.6445 83.4531 42.2852C84.0938 42.9258 84.957 43.2852 85.8594 43.2852C86.7617 43.2852 87.625 42.9258 88.2656 42.2852C88.9062 41.6445 89.2656 40.7812 89.2656 39.8789V15.5195H96.043C96.9453 15.5195 97.8086 15.1602 98.4492 14.5195C99.0898 13.8789 99.4492 13.0156 99.4492 12.1133C99.4492 11.2109 99.0898 10.3477 98.4492 9.70703C97.8086 9.06641 96.9453 8.70703 96.043 8.70703H92.6367Z" fill="#9370DB"/>
  <path d="M139.602 21.6523C139.602 27.9883 134.754 33.043 128.535 33.3438L128.512 33.3477H117.68V39.8789C117.68 40.7812 117.32 41.6445 116.68 42.2852C116.039 42.9258 115.176 43.2852 114.273 43.2852C113.371 43.2852 112.508 42.9258 111.867 42.2852C111.227 41.6445 110.867 40.7812 110.867 39.8789V12.1133C110.867 11.2109 111.227 10.3477 111.867 9.70703C112.508 9.06641 113.371 8.70703 114.273 8.70703H128.512C134.758 8.70703 139.602 13.7617 139.602 20.0977V21.6523ZM132.789 21.6523V20.0977C132.789 17.5117 130.945 15.5195 128.512 15.5195H117.68V26.543H128.512C130.945 26.543 132.789 24.5508 132.789 21.9648V21.6523Z" fill="#9370DB"/>
  <path d="M149.996 19.0156C152.816 19.0156 155.074 16.7578 155.074 13.9375C155.074 11.1172 152.816 8.85938 149.996 8.85938C147.176 8.85938 144.918 11.1172 144.918 13.9375C144.918 16.7578 147.176 19.0156 149.996 19.0156ZM149.996 15.7344C148.984 15.7344 148.199 14.9492 148.199 13.9375C148.199 12.9258 148.984 12.1406 149.996 12.1406C151.008 12.1406 151.793 12.9258 151.793 13.9375C151.793 14.9492 151.008 15.7344 149.996 15.7344Z" fill="#9370DB"/>
</svg>
